<?xml version="1.0" encoding="UTF-8"?>
<!DOCTYPE svg PUBLIC "-//W3C//DTD SVG 1.1//EN" "http://www.w3.org/Graphics/SVG/1.1/DTD/svg11.dtd">
<!-- Tha name and the wires-logo are all trademarks of the Pyoneer Community Foundation -->
<!-- Designed by Peter Varo (c)2013 -->
<svg version="1.1" xmlns="http://www.w3.org/2000/svg" xmlns:xlink="http://www.w3.org/1999/xlink" x="0px" y="0px" width="768" height="268" viewBox="0, 0, 768, 268">
  <g id="text">
    <g>
      <path d="M38.925,109.242 Q24.514,109.242 13.966,98.248 L13.52,98.248 L13.52,141.927 L-0,141.927 L-0,31.986 L11.886,31.986 L13.52,41.494 L13.966,41.494 Q24.514,30.5 38.925,30.5 Q53.336,30.5 64.108,41.197 Q74.879,51.894 74.879,69.871 Q74.879,87.848 64.108,98.545 Q53.336,109.242 38.925,109.242 z M36.994,43.128 Q23.623,43.128 13.52,54.271 L13.52,85.471 Q23.623,96.613 36.994,96.613 Q47.988,96.613 54.674,89.631 Q61.359,82.648 61.359,69.871 Q61.359,57.094 54.674,50.111 Q47.988,43.128 36.994,43.128 z" fill="#646464"/>
      <path d="M153.381,31.986 L107.771,141.927 L94.102,141.927 L106.879,108.945 L75.531,31.986 L90.091,31.986 L113.862,91.859 L114.456,91.859 L138.822,31.986 z" fill="#646464"/>
      <path d="M165.316,41.346 Q175.716,30.5 192.876,30.5 Q210.036,30.5 220.51,41.346 Q230.984,52.191 230.984,69.871 Q230.984,87.551 220.51,98.396 Q210.036,109.242 192.876,109.242 Q175.716,109.242 165.316,98.396 Q154.917,87.551 154.917,69.871 Q154.917,52.191 165.316,41.346 z M192.95,96.911 Q202.756,96.911 210.11,90.151 Q217.464,83.391 217.464,69.797 Q217.464,56.203 210.11,49.517 Q202.756,42.831 192.95,42.831 Q183.145,42.831 175.791,49.517 Q168.436,56.203 168.436,69.797 Q168.436,83.391 175.791,90.151 Q183.145,96.911 192.95,96.911 z" fill="#646464"/>
      <path d="M283.784,30.5 Q296.115,30.5 303.247,38.82 Q310.378,47.14 310.378,59.62 L310.378,107.756 L296.858,107.756 L296.858,61.105 Q296.858,42.98 280.515,42.98 Q267.59,42.98 256.15,57.242 L256.15,107.756 L242.63,107.756 L242.63,31.986 L254.516,31.986 L256.15,41.494 L256.15,43.723 L256.447,43.723 Q268.481,30.5 283.784,30.5 z" fill="#646464"/>
      <path d="M392.446,69.871 L392.446,74.625 L335.098,74.625 Q336.287,85.025 342.824,90.819 Q349.361,96.613 362.658,96.613 Q375.955,96.613 387.246,89.185 L387.989,89.185 L387.989,102.259 Q375.509,109.242 358.646,109.242 Q341.784,109.242 331.607,98.916 Q321.43,88.591 321.43,70.985 Q321.43,53.38 330.493,41.94 Q339.555,30.5 356.938,30.5 Q374.32,30.5 383.383,41.94 Q392.446,53.38 392.446,69.871 z M335.098,63.631 L378.926,63.631 Q378.332,52.934 371.721,47.437 Q365.109,41.94 356.938,41.94 Q348.767,41.94 342.229,47.437 Q335.692,52.934 335.098,63.631 z" fill="#646464"/>
      <path d="M473.004,69.871 L473.004,74.625 L415.656,74.625 Q416.844,85.025 423.381,90.819 Q429.918,96.613 443.215,96.613 Q456.512,96.613 467.804,89.185 L468.546,89.185 L468.546,102.259 Q456.067,109.242 439.204,109.242 Q422.341,109.242 412.164,98.916 Q401.987,88.591 401.987,70.985 Q401.987,53.38 411.05,41.94 Q420.113,30.5 437.495,30.5 Q454.878,30.5 463.941,41.94 Q473.004,53.38 473.004,69.871 z M415.656,63.631 L459.484,63.631 Q458.889,52.934 452.278,47.437 Q445.667,41.94 437.495,41.94 Q429.324,41.94 422.787,47.437 Q416.25,52.934 415.656,63.631 z" fill="#646464"/>
      <path d="M526.687,30.5 L527.875,30.5 L527.875,43.426 L526.687,43.426 Q517.921,43.426 510.344,46.843 Q502.767,50.26 498.458,56.351 L498.458,107.756 L484.939,107.756 L484.939,31.986 L496.824,31.986 L498.458,41.494 L498.458,43.723 L498.756,43.723 Q509.453,30.5 526.687,30.5 z" fill="#646464"/>
    </g>
  </g>
  <g id="trademark">
    <g>
      <path d="M551.551,0 L551.551,2.01 L545.852,2.01 L545.852,16.508 L543.7,16.508 L543.7,2.01 L538,2.01 L538,0 z" fill="#646464"/>
      <path d="M569.194,0 L572.553,0 L572.553,16.508 L570.401,16.508 L570.401,2.27 L570.353,2.27 L564.535,16.508 L562.312,16.508 L556.471,2.27 L556.447,2.27 L556.447,16.508 L554.295,16.508 L554.295,0 L557.653,0 L563.4,14.119 L563.447,14.119 z" fill="#646464"/>
    </g>
  </g>
  <g id="wires">
    <g>
      <path d="M512,59.5 L768,59.5 L768,107.5 L512,107.5 z" fill="url(#Gradient_1)"/>
      <path d="M512,59.5 L768,59.5 L768,61.5 L512,61.5 z" fill="url(#Gradient_2)" opacity="0.32"/>
      <path d="M512,107.5 C640,107.5 608,267.5 768,267.5 L768,219.5 C640,219.5 672,59.5 512,59.5 z" fill="url(#Gradient_3)"/>
      <path d="M768,219.5 C640,219.5 672,59.5 512,59.5 L512,61.5 C670,61.5 638,221.5 768,221.5 L768,219.5 z" fill="url(#Gradient_4)" opacity="0.32"/>
    </g>
  </g>
  <defs>
    <linearGradient id="Gradient_1" gradientUnits="userSpaceOnUse" x1="640" y1="107.814" x2="640" y2="59.66">
      <stop offset="0" stop-color="#FFD43B"/>
      <stop offset="1" stop-color="#FFE873"/>
    </linearGradient>
    <linearGradient id="Gradient_2" gradientUnits="userSpaceOnUse" x1="512" y1="60.5" x2="768" y2="60.5">
      <stop offset="0" stop-color="#FFFFFF" stop-opacity="0"/>
      <stop offset="1" stop-color="#FFFFFF"/>
    </linearGradient>
    <linearGradient id="Gradient_3" gradientUnits="userSpaceOnUse" x1="702.774" y1="51.831" x2="702.774" y2="271.275">
      <stop offset="0" stop-color="#5A9FD4"/>
      <stop offset="1" stop-color="#306998"/>
    </linearGradient>
    <linearGradient id="Gradient_4" gradientUnits="userSpaceOnUse" x1="-768" y1="-140.5" x2="-512" y2="-140.5" gradientTransform="matrix(-1, 0, -0, -1, 0, 0)">
      <stop offset="0" stop-color="#FFFFFF" stop-opacity="0"/>
      <stop offset="1" stop-color="#FFFFFF"/>
    </linearGradient>
  </defs>
</svg>
